<svg xmlns="http://www.w3.org/2000/svg" width="133.207" height="35.832" viewBox="0 0 133.207 35.832"><path d="M27.917,29.424h5.054V6.5H27.917ZM12.7,6.2h-.481c-1.985,0-3.429.9-4.452,3.068C6.378,12.337,0,29.424,0,29.424H5.234S6.2,26.657,7.34,23.468a23.94,23.94,0,0,0,5.174.541,23.9,23.9,0,0,0,5.172-.6c1.143,3.19,2.226,6.017,2.226,6.017h5.174S18.531,12.277,17.148,9.268A4.575,4.575,0,0,0,12.7,6.2m-.18,13.417a13.109,13.109,0,0,1-3.61-.481c1.263-3.55,2.407-6.739,2.587-7.16.361-.963.6-1.263,1.023-1.263s.662.3,1.023,1.263c.12.421,1.324,3.61,2.647,7.16a13.9,13.9,0,0,1-3.67.481M52.948,9.268A4.662,4.662,0,0,0,48.494,6.2h-.481c-1.985,0-3.429.9-4.452,3.068-1.384,3.068-7.822,20.156-7.822,20.156h5.234s.963-2.768,2.106-5.956a23.94,23.94,0,0,0,5.174.541,23.9,23.9,0,0,0,5.174-.6c1.143,3.19,2.226,6.017,2.226,6.017h5.174c.06,0-6.5-17.148-7.882-20.156M48.314,19.617a13.109,13.109,0,0,1-3.61-.481c1.263-3.55,2.407-6.739,2.587-7.16.361-.963.6-1.263,1.023-1.263s.662.3,1.023,1.263c.181.421,1.324,3.61,2.647,7.16a13.9,13.9,0,0,1-3.67.481" transform="translate(0 -2.438)" fill="#d31145"/><path d="M126.657,17.608c0,.481-1.384,6.017-1.384,6.5s.241.6.241.6.3,1.745-1.985,2.286a1.879,1.879,0,0,1-1.865-2.046c.18-1.685.421-6.618,3.129-9.687a2.433,2.433,0,0,1,1.865,2.346M156.8,15.442c.481,0,1.5-.784,1.5-1.444,0-.3-1.143-2.768-2.707-2.768a1.277,1.277,0,0,0-1.083,1.023c.06.722.662,3.19,2.286,3.19M127.32,13.7c.481,0,1.324-.3,1.324-.963,0-.3-1.2-3.246-2.768-3.246a1.277,1.277,0,0,0-1.083,1.023c0,.722.18,3.19,2.527,3.19M132.072.22C131.41-.5,123.287-1.4,116.248,20.737c-.06.18-.241.12-.3,0-1.083-5.9-.6-12.515-.784-13.6-.361-2.647-2.587-1.805-2.587-1.805-1.023,2.106-.361,19.193,1.324,21.419,1.023.421,3.911.3,4.512-.421.06,0,4.151-21.6,13.657-26.112M175.75,16.044c-.18,0-.3.241-.3.241-2.467,4.452-4.693,8-6.619,8.122-.421,0-.6-.241-.722-.662v.06c-.241-1.685,1.384-5.956,1.263-7.16-.06-.421-.241-.421-.541-.6-.12.06-.18.18-.3.3a.224.224,0,0,1-.18.06,18.791,18.791,0,0,0-3.429-.84c.9-2.467,2.707-7.581,2.707-8.06,0-1.143-.84-1.564-2.286-1.925a45.047,45.047,0,0,0-3.851,9.988c-.722.662-1.865.06-2.106,1.384.541.6,1.623,1.083,1.623,1.564a29.037,29.037,0,0,0-.481,8.424c.421.18,2.046-1.623,2.106-2.166.481-4.753,1.685-6.437,1.685-6.437a16.207,16.207,0,0,0,3.008-.18c.06,0,.06,0,.06.06-.241.541-1.865,3.851-1.865,5.415,0,1.985.662,3.129,2.286,3.246a3.266,3.266,0,0,0,1.083,0,7.69,7.69,0,0,0,4.937-2.834c.12-.12.3,0,.241.12-2.467,8.664-7.16,10.89-9.085,11.312.06.6,3.49.421,5.9-1.564a19.505,19.505,0,0,0,5.653-8.724c.241-.9.541-1.805.722-2.768a29.64,29.64,0,0,0,.6-5.174,11.97,11.97,0,0,0-2.106-1.2m-16.3,9.748h-.06c-2.527,0,.421-8.965-3.129-8.483a6.033,6.033,0,0,0-1.865.722c-.06.06-.12.06-.18.12a37.307,37.307,0,0,1-4.452,5.839.382.382,0,0,1-.662-.18C147.775,19.6,153.551,7.142,153.611,6.9c.421-1.384-1.5-2.046-2.407-2.166-2.106,2.948-5.6,12.334-5.234,19.8a.313.313,0,0,1-.12.241c-.6.241-2.707,1.023-2.467-.722.06-.481,1.083-3.129,1.083-3.61,0-.3-1.263-2.046-2.226-2.046-.361,0-4.03,4.573-5.234,5.653a.434.434,0,0,1-.662-.12c-.662-1.444.9-5.415,5.475-6.919a6.784,6.784,0,0,0,1.143-1.143.763.763,0,0,0,.06-.361c-.06-.18-.361-.361-.361-.361h0C140.135,14,134.539,14.119,133.577,14c.722-3.19,2.888-8.363,2.948-8.843.12-.784-.662-1.5-2.226-1.925A70.507,70.507,0,0,0,129.606,14c-.421.421-1.023.241-1.444,1.5,0,.541.9,1.2.9,1.685a40.071,40.071,0,0,0-.541,9.868c1.263.06,2.587-1.865,2.647-2.467a53.282,53.282,0,0,1,1.564-7.521,39.011,39.011,0,0,0,4.993-.3.059.059,0,0,1,.059.056c-2.407,2.046-4.693,4.03-4.633,7.822a2.637,2.637,0,0,0,2.587,2.407c1.623,0,3.246-1.444,4.091-2.346.12-.18.421-.06.481.12a2.631,2.631,0,0,0,2.647,2.226,8.33,8.33,0,0,0,3.309-1.384.224.224,0,0,1,.18.06c.421.481,1.2,1.324,1.985,1.324,2.346,0,4.693-3.429,6.017-5.475.12-.18.421-.12.421.06.481,2.226.481,5.415,2.768,5.415a6.536,6.536,0,0,0,2.046-.421.448.448,0,0,0-.241-.84" transform="translate(-44.649 0.052)" fill="#d31145"/></svg>